<?xml version="1.0" standalone="no"?>
<!DOCTYPE svg PUBLIC "-//W3C//DTD SVG 20010904//EN"
 "http://www.w3.org/TR/2001/REC-SVG-20010904/DTD/svg10.dtd">
<svg version="1.0" xmlns="http://www.w3.org/2000/svg"
 width="434.000000pt" height="434.000000pt" viewBox="0 0 434.000000 434.000000"
 preserveAspectRatio="xMidYMid meet">
<metadata>
Created by potrace 1.14, written by Peter Selinger 2001-2017
</metadata>
<g transform="translate(0.000000,434.000000) scale(0.100000,-0.100000)"
fill="#000000" stroke="none">
<path d="M88 3246 c-10 -7 -15 -16 -11 -19 3 -4 1 -7 -6 -7 -7 0 -10 -4 -7 -9
4 -5 0 -12 -6 -14 -9 -4 -9 -6 -1 -6 14 -1 -6 -46 -37 -78 -20 -22 -20 -29
-20 -937 0 -781 2 -915 14 -919 8 -3 25 -28 37 -55 15 -34 36 -59 66 -78 23
-16 43 -32 43 -36 0 -13 4060 -10 4060 2 0 15 50 60 67 60 8 0 12 4 9 8 -3 5
6 15 19 22 l25 13 0 984 c0 728 -3 983 -11 983 -7 0 -31 18 -55 40 -24 22 -48
40 -54 40 -6 0 -8 5 -5 10 4 7 -682 10 -2052 10 -1686 -1 -2061 -3 -2075 -14z
m503 -466 c13 8 19 7 19 0 0 -8 6 -8 20 0 15 8 20 8 20 -1 0 -8 4 -8 15 1 12
10 15 10 15 0 0 -10 3 -10 15 0 11 9 15 9 15 1 0 -7 5 -9 11 -6 16 11 70 12
75 3 3 -5 12 -4 20 3 11 9 14 9 14 -1 0 -10 3 -10 15 0 11 9 15 9 15 1 0 -8 5
-9 17 -3 12 7 23 3 42 -16 16 -16 21 -27 13 -30 -8 -2 -9 -9 -2 -23 6 -11 7
-19 1 -19 -5 0 -8 -8 -7 -17 0 -11 -6 -17 -16 -17 -10 1 -18 -1 -18 -5 0 -3
-20 -5 -45 -3 -44 4 -53 -2 -45 -33 7 -28 5 -142 -3 -152 -6 -9 -5 -13 2 -13
9 0 9 -5 1 -20 -8 -15 -8 -20 1 -20 8 0 8 -4 1 -13 -7 -8 -7 -18 -2 -27 5 -9
5 -19 -2 -27 -7 -9 -7 -13 2 -13 10 0 10 -3 0 -15 -10 -12 -10 -15 1 -15 8 -1
4 -6 -9 -13 -12 -7 -19 -17 -15 -21 4 -5 -2 -6 -14 -3 -13 3 -23 0 -23 -5 0
-6 -6 -5 -15 2 -10 8 -15 9 -15 2 0 -7 -12 -4 -30 6 -17 9 -28 23 -25 30 2 6
-1 12 -8 12 -8 0 -6 4 3 10 8 5 11 10 5 10 -6 0 -10 27 -10 60 0 33 3 60 7 60
4 0 3 14 -2 30 -5 17 -5 30 0 30 5 0 5 13 0 30 -5 17 -5 30 0 30 5 0 5 13 0
30 -5 19 -5 30 1 30 6 0 7 5 4 10 -3 6 -28 10 -55 10 -39 0 -52 4 -64 22 -8
12 -13 25 -10 29 2 4 0 11 -6 14 -8 5 -7 11 1 21 6 8 8 14 3 14 -5 0 2 9 16
20 14 10 26 15 28 10 2 -6 11 -6 23 0z m526 -3 c3 -4 12 -2 20 4 10 9 13 8 13
-1 0 -10 3 -10 15 0 12 10 15 10 15 0 0 -10 3 -10 15 0 11 9 15 9 15 1 0 -9 5
-9 20 -1 11 6 20 7 20 3 0 -9 68 -8 77 0 2 3 13 -2 24 -11 14 -12 15 -18 6
-24 -9 -6 -9 -10 2 -17 9 -6 10 -10 2 -16 -8 -4 -9 -11 -2 -18 6 -8 5 -18 -4
-30 -11 -16 -25 -18 -99 -15 -53 2 -86 -1 -86 -7 0 -5 -4 -5 -8 1 -5 9 -11 8
-20 -2 -8 -9 -9 -14 -2 -14 6 0 8 -5 4 -12 -21 -34 5 -72 36 -53 5 3 10 1 10
-5 0 -8 6 -8 20 0 14 8 20 8 20 0 0 -8 6 -8 20 0 15 8 20 8 20 -1 0 -7 3 -9 7
-6 14 15 33 -18 33 -57 0 -50 -8 -64 -37 -61 -13 1 -23 -2 -23 -6 0 -4 -13 -4
-30 1 -19 5 -30 5 -30 -1 0 -6 -7 -6 -17 0 -13 6 -22 5 -31 -5 -8 -9 -9 -14
-2 -14 8 0 8 -6 0 -20 -6 -12 -7 -20 -1 -20 6 0 6 -11 1 -30 -6 -20 -5 -30 2
-30 6 0 4 -10 -5 -22 -8 -13 -20 -22 -26 -20 -6 1 -11 -3 -11 -9 0 -8 -5 -8
-15 1 -12 10 -15 10 -15 -1 0 -10 -3 -10 -11 -2 -6 6 -17 9 -24 6 -29 -11 -51
93 -34 160 5 16 4 27 -2 27 -6 0 -5 8 1 20 8 14 8 20 0 20 -7 0 -8 6 0 19 7
14 7 22 0 26 -8 5 -7 11 1 21 9 11 9 14 0 14 -9 0 -9 5 -1 20 8 14 8 20 0 20
-8 0 -8 6 0 20 8 14 8 20 0 20 -7 0 -8 6 0 19 7 14 7 22 0 26 -8 5 -7 11 1 21
9 11 8 14 -2 15 -10 0 -11 2 -1 6 6 2 10 8 7 13 -15 24 89 49 112 27z m363 5
c0 8 3 9 8 3 10 -13 52 -14 52 -1 0 6 7 0 16 -13 16 -22 26 -101 13 -101 -3 0
-4 -13 -1 -28 2 -17 10 -29 18 -29 8 0 13 6 10 14 -3 7 1 13 11 13 9 0 14 3
11 6 -3 3 4 15 16 28 43 46 76 88 76 99 0 6 3 7 7 4 3 -4 12 -2 20 4 9 9 13 8
13 0 0 -7 6 -9 18 -4 9 5 26 8 37 7 25 -1 75 -22 56 -23 -8 -1 -11 -4 -8 -8 4
-4 -5 -19 -20 -35 -15 -15 -23 -28 -19 -28 4 0 1 -6 -6 -14 -7 -8 -16 -12 -20
-9 -5 2 -8 0 -8 -6 0 -18 -47 -80 -55 -73 -5 4 -5 -1 -2 -10 4 -10 3 -18 -1
-18 -4 0 -8 -9 -9 -20 -1 -11 2 -20 7 -20 8 0 54 -72 50 -78 -1 -2 8 -12 19
-21 11 -10 18 -21 14 -25 -3 -3 -1 -6 6 -6 7 0 9 -4 6 -10 -3 -5 -1 -10 5 -10
6 0 13 -8 17 -17 3 -10 13 -26 22 -36 9 -11 16 -26 16 -35 0 -21 -26 -33 -42
-20 -9 7 -13 7 -13 -2 0 -10 -3 -10 -15 0 -12 10 -15 10 -15 0 0 -9 -4 -9 -12
-2 -7 6 -17 11 -23 11 -26 3 -45 14 -45 27 0 8 -5 14 -12 14 -6 0 -9 3 -5 6 3
3 -3 15 -14 27 -10 11 -19 27 -19 34 0 7 -5 13 -12 13 -6 0 -9 3 -5 6 3 3 -4
16 -15 29 -17 19 -25 22 -40 14 -16 -9 -18 -21 -17 -81 2 -64 0 -72 -22 -89
-17 -13 -27 -15 -36 -7 -9 7 -13 7 -13 -2 0 -10 -3 -10 -15 0 -12 10 -15 10
-15 0 0 -9 -5 -8 -18 3 -10 10 -22 14 -27 10 -4 -5 -5 -2 -1 4 4 7 2 22 -4 33
-7 13 -7 20 0 20 5 0 10 5 10 11 0 5 -6 7 -12 3 -9 -5 -9 -2 1 9 10 13 10 17
1 17 -9 0 -9 4 -2 13 7 8 7 18 2 27 -5 8 -6 19 -2 25 10 16 11 35 1 35 -4 0
-5 10 0 22 4 13 5 35 0 50 -4 16 -4 28 0 28 3 0 7 9 7 20 0 11 -4 20 -8 20 -5
0 -4 9 2 20 8 14 8 20 0 20 -8 0 -8 6 0 20 8 14 8 20 0 20 -8 0 -8 6 0 20 8
15 8 20 -1 20 -8 0 -9 4 0 13 6 8 7 17 3 21 -4 4 0 6 8 4 8 -1 14 3 12 10 -2
10 2 10 18 2 15 -8 20 -8 20 2z m531 -2 c14 8 19 7 19 -2 0 -10 2 -10 9 1 6 9
11 10 15 2 4 -6 12 -8 18 -5 7 4 8 2 4 -4 -4 -7 -2 -12 5 -12 7 0 10 -3 7 -6
-4 -3 -2 -19 2 -35 5 -16 5 -29 0 -29 -5 0 -5 -13 0 -30 5 -16 5 -30 1 -30 -4
0 -8 -6 -8 -14 0 -8 6 -12 14 -9 7 3 13 1 13 -5 0 -12 18 -11 39 2 7 5 16 5
20 -1 7 -10 26 -11 36 -1 4 4 13 4 20 2 7 -3 15 2 18 10 4 9 1 16 -5 16 -7 0
-6 5 2 15 10 12 10 15 0 15 -10 0 -10 3 -1 14 9 10 9 16 1 21 -8 5 -8 10 0 20
8 10 8 14 -1 17 -23 8 30 50 57 45 13 -2 21 0 18 4 -3 5 0 9 5 9 6 0 11 -4 11
-9 0 -5 8 -7 18 -4 10 2 24 -3 31 -11 8 -9 9 -16 3 -16 -9 0 -6 -69 4 -79 2
-2 -1 -10 -7 -18 -9 -10 -8 -13 0 -13 8 0 9 -5 3 -16 -5 -9 -6 -31 -2 -50 5
-20 3 -37 -3 -43 -8 -8 -7 -11 1 -11 9 0 10 -5 3 -17 -6 -11 -6 -24 0 -35 5
-9 5 -19 0 -22 -8 -5 -6 -58 4 -83 2 -7 1 -13 -3 -13 -4 0 -8 -9 -8 -20 0 -11
3 -20 6 -20 4 0 7 -7 7 -15 0 -8 -2 -13 -5 -11 -2 3 -14 -4 -25 -15 -14 -12
-24 -16 -31 -9 -6 6 -14 6 -23 -1 -8 -8 -13 -8 -13 -1 0 5 -10 8 -22 4 -14 -3
-19 -1 -14 6 3 6 2 13 -4 17 -6 4 -8 11 -5 16 4 5 1 9 -6 9 -8 0 -8 4 -1 13 7
8 7 18 2 27 -5 9 -5 19 2 27 7 9 7 13 0 13 -7 0 -8 10 -3 28 5 20 3 31 -11 45
-10 9 -18 12 -18 7 0 -7 -6 -7 -20 0 -11 6 -20 7 -20 2 0 -5 -17 -6 -39 -2
l-38 7 -2 -89 c-2 -94 -7 -121 -22 -112 -5 3 -9 -2 -9 -12 0 -13 -3 -14 -15
-4 -12 10 -15 10 -15 0 0 -10 -3 -10 -15 0 -9 7 -15 8 -15 2 0 -7 -8 -6 -24 1
-13 7 -22 15 -20 19 3 5 0 8 -6 8 -7 0 -10 6 -7 13 2 6 0 24 -4 40 -4 15 -4
27 0 27 3 0 7 9 7 20 0 11 -4 20 -9 20 -5 0 -4 7 3 15 9 11 9 15 1 15 -8 0 -9
5 -3 16 5 9 6 31 2 50 -5 20 -3 37 3 43 8 8 7 11 -1 11 -9 0 -10 5 -4 17 6 9
6 29 2 45 -5 15 -5 28 -1 28 4 0 8 7 8 15 0 8 -4 15 -9 15 -5 0 -4 10 3 21 9
17 8 23 -2 30 -11 6 -10 9 4 15 9 3 15 10 12 14 -3 5 3 13 12 19 11 6 19 6 21
0 2 -5 11 -5 23 1z m529 -3 c0 -5 7 -4 15 3 8 7 15 8 15 3 0 -11 29 -11 48 1
7 4 12 2 12 -6 0 -9 3 -9 10 2 8 12 10 12 10 1 0 -10 3 -11 14 -2 11 9 16 9
21 1 4 -7 16 -10 26 -7 11 3 19 1 19 -5 0 -5 5 -6 10 -3 6 3 10 1 10 -5 0 -6
5 -8 10 -5 6 3 10 1 10 -6 0 -7 3 -10 6 -6 4 3 13 -1 21 -9 8 -8 19 -12 24 -9
5 4 9 2 9 -2 0 -5 7 -18 16 -29 8 -10 12 -13 8 -5 -5 9 -3 12 4 7 7 -4 12 -14
12 -22 0 -8 5 -14 10 -14 6 0 10 -6 10 -14 0 -8 6 -16 13 -19 8 -3 12 -18 11
-36 -1 -17 3 -31 8 -31 6 0 5 -6 -2 -15 -10 -12 -10 -15 0 -15 10 0 10 -3 1
-14 -7 -9 -8 -17 -2 -20 9 -6 -6 -74 -19 -86 -3 -3 -11 -17 -19 -32 -8 -16
-16 -26 -19 -23 -3 2 -13 -7 -24 -20 -10 -13 -29 -27 -41 -31 -12 -4 -25 -11
-28 -15 -3 -5 -25 -12 -50 -15 -24 -4 -51 -9 -59 -13 -18 -8 -137 -5 -166 4
-23 7 -40 65 -20 65 6 0 4 5 -4 10 -8 5 -10 10 -4 10 8 0 9 13 4 40 -4 22 -4
40 1 40 4 0 4 14 -1 30 -5 17 -5 30 0 30 5 0 5 13 0 30 -5 19 -5 30 1 30 6 0
5 8 -1 20 -6 12 -7 20 -1 20 6 0 6 11 1 30 -6 21 -5 30 3 30 7 0 6 4 -3 10 -8
5 -10 10 -4 10 7 0 9 10 6 25 -2 13 -1 33 4 42 4 10 8 23 9 28 0 6 6 9 13 8 7
-2 12 1 12 5 0 5 7 9 15 9 8 0 15 -5 15 -10z m490 0 c0 -5 6 -4 14 2 11 9 16
9 21 0 6 -8 9 -8 15 1 6 9 10 7 14 -8 4 -11 14 -23 22 -26 8 -3 13 -10 9 -15
-3 -5 -1 -12 5 -16 6 -4 8 -11 5 -16 -4 -5 -1 -9 5 -9 6 0 8 -4 5 -10 -3 -5
-1 -10 5 -10 6 0 8 -4 5 -10 -3 -5 -1 -10 5 -10 6 0 9 -4 6 -9 -3 -5 0 -11 8
-14 14 -6 48 27 39 37 -4 3 -1 6 5 6 7 0 12 9 12 20 0 11 5 20 11 20 6 0 9 7
6 15 -4 9 6 24 26 39 18 14 34 21 35 15 3 -6 9 -6 18 2 11 9 14 9 14 0 0 -9 5
-9 20 -1 14 8 20 8 20 0 0 -6 5 -8 10 -5 16 10 23 -24 9 -42 -12 -14 -12 -16
1 -9 8 4 4 -2 -10 -13 -14 -11 -21 -21 -17 -21 5 0 -1 -13 -12 -29 -11 -15
-18 -31 -14 -34 3 -4 -2 -9 -11 -13 -9 -3 -16 -15 -16 -25 0 -10 -4 -19 -9
-19 -5 0 -12 -11 -15 -25 -4 -14 -11 -25 -17 -25 -6 0 -7 -4 -4 -10 3 -5 1
-10 -5 -10 -7 0 -10 -6 -7 -13 3 -8 1 -20 -3 -27 -5 -8 -5 -21 0 -31 5 -9 6
-19 3 -23 -11 -11 -12 -36 -2 -36 6 0 6 -8 -1 -19 -6 -12 -6 -21 0 -23 5 -2 2
-17 -7 -35 -8 -18 -19 -30 -24 -27 -5 3 -9 -1 -9 -8 0 -9 -3 -9 -10 2 -9 13
-10 13 -10 0 0 -12 -2 -12 -9 -1 -5 8 -11 9 -15 3 -4 -7 -16 -5 -35 4 -24 12
-30 22 -33 59 -2 25 0 45 3 45 4 0 3 18 -1 40 -5 27 -4 40 4 40 6 0 4 5 -4 10
-12 8 -12 10 -1 10 11 0 11 4 -2 18 -10 10 -14 22 -10 25 3 4 1 7 -6 7 -7 0
-9 5 -6 10 3 6 1 10 -5 10 -6 0 -8 5 -5 10 3 6 -1 13 -9 16 -9 3 -13 10 -10
15 3 5 0 9 -6 9 -6 0 -8 5 -5 10 3 6 1 10 -5 10 -6 0 -8 5 -5 10 3 6 2 10 -3
10 -5 0 -15 14 -22 30 -7 17 -17 30 -23 30 -6 0 -7 3 -4 7 4 3 2 12 -4 19 -14
17 -22 67 -10 60 5 -4 12 -3 15 2 6 11 46 10 46 -1z m500 5 c0 -10 30 -9 48 2
7 4 12 2 12 -6 0 -9 3 -9 10 2 8 12 10 12 10 1 0 -11 3 -11 15 -1 12 10 15 10
15 0 0 -10 3 -10 15 0 11 9 15 9 15 1 0 -7 5 -9 11 -6 16 11 70 12 75 3 3 -5
12 -4 20 3 11 9 14 8 14 -2 0 -10 3 -10 11 -2 21 21 54 -22 50 -65 -4 -51 -18
-64 -63 -60 -21 2 -38 -1 -38 -5 0 -5 -8 -3 -17 4 -10 7 -15 10 -11 5 4 -5 3
-17 -2 -27 -7 -11 -7 -20 0 -24 6 -4 6 -15 0 -30 -6 -16 -6 -25 1 -25 6 0 6
-7 -1 -20 -8 -15 -8 -20 1 -20 8 0 8 -4 -1 -15 -10 -12 -10 -15 0 -15 10 0 10
-3 0 -15 -10 -12 -10 -15 0 -15 10 0 10 -3 1 -14 -7 -8 -8 -17 -3 -20 9 -5 8
-59 -3 -75 -3 -6 -1 -11 6 -11 10 0 10 -3 1 -12 -15 -15 -16 -32 -2 -23 6 3
10 4 10 1 0 -3 -18 -15 -40 -26 -25 -13 -40 -16 -40 -9 0 8 -4 8 -15 -1 -11
-9 -15 -9 -15 -1 0 7 -4 10 -9 7 -4 -3 -19 6 -31 19 -13 14 -19 25 -14 25 7 0
8 19 4 50 -4 28 -4 50 0 50 4 0 4 23 0 50 -4 28 -3 50 2 50 5 0 4 9 -2 20 -6
11 -7 20 -3 20 4 0 6 22 5 50 l-4 50 -53 0 c-45 0 -55 4 -69 25 -11 16 -12 25
-5 25 8 0 8 4 1 13 -24 30 34 83 69 61 8 -4 9 -3 5 4 -4 7 -2 12 3 12 6 0 11
-4 11 -8z m-1339 -602 c12 7 19 7 19 1 0 -6 7 -8 15 -5 8 3 24 -1 37 -10 12
-9 18 -16 12 -16 -8 0 -9 -13 -4 -40 4 -22 4 -37 0 -35 -5 3 -11 -2 -14 -11
-4 -12 -15 -15 -36 -12 -17 3 -30 1 -30 -2 0 -15 -51 3 -61 21 -5 11 -6 19 -1
19 5 0 7 14 4 30 -3 21 2 37 14 51 10 11 20 16 22 10 3 -8 9 -8 23 -1z m-1481
-101 c0 -9 21 -6 38 4 6 5 12 4 12 -1 0 -5 11 -8 23 -7 13 2 24 -2 25 -9 4
-43 7 -56 15 -56 5 0 7 -9 4 -20 -3 -11 -1 -20 5 -20 5 0 6 -4 3 -10 -3 -5 -1
-10 4 -10 6 0 11 -13 11 -28 0 -16 3 -32 7 -36 7 -6 11 -24 15 -58 3 -22 28
-33 28 -13 0 8 4 15 8 15 5 0 9 6 10 13 0 6 6 30 12 52 6 22 13 48 15 59 2 10
8 23 13 30 5 6 8 19 7 29 -2 9 1 17 5 17 5 0 7 8 5 18 -2 13 6 22 26 29 17 7
29 7 29 2 0 -6 8 -5 20 1 14 8 20 8 20 0 0 -8 6 -8 20 0 14 7 20 7 20 0 0 -5
7 -10 16 -10 11 0 14 -6 9 -20 -3 -11 -2 -20 2 -20 5 0 10 -26 11 -57 3 -78 4
-83 14 -83 5 0 4 -9 -2 -20 -8 -15 -8 -20 2 -20 10 0 10 -2 -1 -9 -7 -5 -9
-11 -4 -14 5 -3 11 -32 12 -63 1 -32 7 -66 12 -76 5 -10 6 -18 1 -18 -4 0 -8
-9 -8 -20 0 -11 4 -20 9 -20 4 0 6 -4 2 -9 -3 -5 -1 -12 4 -16 18 -11 -22 -43
-41 -33 -10 5 -18 5 -18 0 0 -16 -70 0 -81 19 -7 14 -6 19 2 19 8 0 9 4 0 13
-6 8 -8 17 -4 20 3 4 1 7 -7 7 -10 0 -10 3 0 15 7 9 8 15 2 15 -6 0 -9 11 -7
25 1 14 -1 25 -5 25 -3 0 -5 14 -2 30 3 25 1 29 -12 24 -9 -3 -13 -10 -10 -15
2 -5 0 -17 -5 -27 -11 -20 -22 -65 -24 -94 -1 -10 -4 -18 -8 -18 -4 0 -10 -7
-13 -16 -4 -10 -2 -13 7 -8 6 4 3 -3 -8 -15 -13 -15 -27 -21 -42 -18 -13 2
-23 -1 -23 -7 0 -6 -5 -4 -10 4 -8 12 -10 12 -10 1 0 -19 -42 10 -46 32 -1 8
-8 33 -15 54 -7 21 -12 41 -11 46 1 4 -4 7 -11 7 -8 0 -7 4 3 10 12 7 12 10 1
10 -7 0 -11 6 -8 13 3 7 -1 21 -9 32 -14 18 -14 18 -16 -1 0 -10 -1 -25 -1
-31 1 -7 -2 -13 -6 -13 -4 0 -6 -18 -4 -40 1 -22 -2 -42 -6 -44 -4 -3 -6 -19
-5 -35 1 -21 -3 -31 -12 -31 -8 0 -14 -3 -14 -8 0 -4 -24 -5 -52 -2 -43 4 -53
8 -52 23 1 9 -3 17 -8 17 -6 0 -5 6 2 15 10 12 10 15 0 15 -10 0 -10 3 0 15 7
8 10 28 8 45 -3 16 -1 30 3 30 4 0 5 9 2 20 -3 11 0 20 6 20 8 0 9 5 2 19 -6
10 -8 21 -5 24 6 6 12 43 15 110 1 26 7 47 13 47 6 0 6 4 -1 11 -11 11 2 74
21 94 10 12 46 15 46 4z m2171 1 c18 5 29 5 29 -1 0 -6 8 -5 20 1 14 8 20 8
20 0 0 -8 6 -8 20 0 14 8 20 8 20 0 0 -8 6 -8 20 0 14 8 20 8 20 0 0 -6 4 -9
9 -5 5 3 13 0 17 -6 5 -8 8 -8 14 1 5 8 11 8 22 -3 7 -8 24 -18 36 -21 12 -4
22 -11 22 -16 0 -5 9 -12 20 -15 11 -3 20 -11 20 -16 0 -5 8 -18 18 -28 40
-45 44 -51 30 -51 -9 0 -9 -3 2 -10 8 -5 11 -10 6 -10 -5 0 -3 -7 4 -15 6 -8
9 -19 5 -25 -3 -5 -1 -10 5 -10 8 0 8 -6 0 -20 -7 -12 -7 -20 -1 -20 12 0 -18
-92 -33 -102 -7 -5 -7 -8 -1 -8 6 0 6 -3 0 -8 -6 -4 -21 -20 -33 -36 -12 -16
-22 -25 -22 -20 0 4 -6 -1 -14 -12 -8 -10 -18 -19 -23 -19 -4 -1 -18 -6 -31
-13 -12 -7 -27 -10 -32 -7 -6 3 -10 1 -10 -6 0 -7 -10 -9 -25 -7 -14 3 -25 1
-25 -4 0 -5 -9 -4 -20 2 -11 6 -20 7 -20 2 0 -5 -22 -6 -50 -2 -27 4 -50 3
-50 -1 0 -4 -12 -4 -27 0 -22 6 -29 15 -34 44 -3 20 -3 37 1 37 4 0 4 18 0 40
-4 22 -4 40 -1 40 3 0 4 32 1 70 -3 39 -2 70 2 70 3 0 3 14 -2 30 -5 17 -5 30
0 30 5 0 5 13 0 30 -5 17 -5 30 -2 30 4 0 6 17 4 39 -2 24 1 42 9 46 8 6 10 4
5 -6 -4 -8 -1 -6 6 4 7 9 14 13 16 8 2 -5 15 -6 33 -1z m561 1 c10 5 18 6 18
1 0 -5 7 -9 15 -9 8 0 15 4 15 8 0 4 13 4 28 -1 16 -4 36 -4 45 2 12 6 17 5
17 -3 0 -8 4 -9 13 -1 10 9 19 7 35 -4 17 -12 22 -12 22 -2 1 9 5 7 14 -4 7
-10 18 -18 25 -18 6 0 11 -3 11 -8 0 -4 11 -20 25 -35 15 -16 20 -27 13 -27
-10 0 -10 -2 1 -9 7 -5 10 -14 7 -20 -4 -6 -1 -11 6 -11 8 0 9 -3 3 -8 -6 -4
-10 -17 -9 -29 1 -13 -3 -23 -8 -23 -5 0 -6 -4 -3 -10 3 -5 2 -10 -3 -10 -5 0
-7 -11 -4 -25 2 -14 11 -25 19 -25 8 0 11 -5 8 -10 -4 -6 -1 -17 5 -25 18 -22
7 -115 -14 -127 -9 -5 -14 -13 -12 -17 7 -11 -76 -62 -91 -57 -7 3 -13 2 -13
-3 0 -5 -18 -5 -40 -1 -22 4 -40 4 -40 1 0 -4 -27 -4 -60 -1 -33 3 -60 3 -60
-1 0 -4 -15 -3 -32 1 -18 4 -32 12 -30 18 1 7 -3 12 -8 12 -7 0 -7 6 0 20 8
15 8 20 -1 20 -8 0 -8 4 1 15 9 11 9 15 1 15 -7 0 -9 5 -4 13 12 19 12 37 1
37 -6 0 -5 6 2 15 10 12 10 15 0 15 -10 0 -10 4 1 16 10 13 10 17 0 24 -9 5
-10 10 -2 14 7 4 8 14 3 24 -9 19 -8 59 1 69 4 3 2 14 -4 24 -7 14 -6 19 2 19
8 0 8 4 -1 15 -10 12 -10 15 0 15 10 0 10 3 0 15 -10 12 -10 15 0 15 9 0 10 3
1 13 -8 10 -7 17 1 25 9 9 9 12 -2 12 -10 0 -6 7 10 19 16 13 30 17 39 11 9
-5 23 -4 33 1z m-2032 -76 c0 6 21 9 50 7 27 -2 50 -8 50 -14 0 -5 5 -6 10 -3
6 3 23 -3 39 -14 15 -11 31 -18 35 -14 3 3 6 -4 6 -16 0 -12 4 -20 9 -16 5 3
12 -4 16 -15 3 -11 11 -20 16 -20 5 0 9 -8 9 -18 0 -10 5 -23 12 -30 7 -7 9
-12 6 -12 -3 0 -2 -16 2 -35 4 -19 4 -35 0 -35 -5 0 -6 -9 -3 -20 3 -11 0 -26
-6 -33 -6 -8 -8 -17 -4 -20 3 -4 1 -7 -6 -7 -8 0 -11 -7 -7 -15 3 -8 2 -14 -2
-12 -4 1 -8 -2 -9 -6 -4 -17 -84 -73 -105 -74 -13 -1 -27 -9 -33 -17 -7 -9
-16 -12 -25 -6 -9 5 -19 5 -27 -2 -9 -7 -13 -7 -13 2 0 7 -6 10 -14 7 -7 -3
-24 0 -38 7 -13 7 -29 11 -36 8 -7 -2 -11 2 -10 10 2 7 -2 12 -9 11 -30 -6
-123 153 -99 170 8 6 8 10 0 13 -11 5 -10 12 14 84 3 8 4 18 4 23 -1 4 3 7 10
7 6 0 9 3 6 6 -9 8 77 84 96 84 9 0 16 5 16 11 0 5 5 7 10 4 6 -3 10 0 10 7 0
9 3 9 10 -2 5 -8 10 -10 10 -5z m600 3 c0 7 10 8 30 2 17 -5 34 -9 38 -9 15 0
13 -34 -6 -74 -11 -23 -26 -60 -33 -82 -8 -22 -19 -46 -26 -53 -7 -7 -10 -19
-7 -27 4 -8 1 -15 -5 -15 -6 0 -11 -9 -11 -19 0 -11 -5 -23 -10 -26 -6 -4 -8
-11 -5 -16 4 -5 1 -9 -5 -9 -6 0 -9 -4 -5 -9 3 -5 1 -12 -5 -16 -6 -4 -8 -11
-5 -16 4 -5 1 -9 -5 -9 -6 0 -8 -4 -5 -10 3 -5 2 -10 -3 -10 -5 0 -12 -9 -15
-20 -4 -16 -14 -20 -51 -20 -25 0 -45 3 -44 8 1 4 -3 17 -10 28 -6 12 -8 24
-5 28 3 3 1 6 -6 6 -7 0 -10 4 -6 9 3 5 1 12 -5 16 -6 4 -8 11 -5 16 4 5 1 9
-5 9 -6 0 -8 5 -5 10 3 6 1 10 -5 10 -6 0 -8 5 -5 10 3 6 2 10 -4 10 -6 0 -8
7 -5 15 4 8 2 15 -3 15 -5 0 -10 6 -11 13 -2 25 -27 87 -35 87 -5 0 -6 4 -2 9
3 5 1 12 -5 16 -6 4 -8 11 -5 16 4 5 1 9 -5 9 -6 0 -8 5 -5 10 3 6 1 10 -5 10
-6 0 -8 5 -5 10 4 6 1 18 -6 27 -11 13 -10 17 6 29 36 27 142 9 133 -22 -1 -5
3 -18 9 -29 6 -11 9 -28 8 -38 -2 -9 1 -15 6 -11 5 3 10 0 10 -5 5 -39 7 -52
9 -56 1 -3 3 -11 4 -17 0 -7 9 -14 19 -16 10 -2 17 0 16 5 -4 16 13 63 23 63
6 0 6 6 -1 14 -8 10 -9 15 -1 18 6 2 12 13 13 26 0 12 5 22 9 22 4 0 8 7 8 15
0 8 8 24 17 35 13 14 20 17 30 8 9 -7 13 -7 13 0z m220 5 c0 7 7 4 14 -5 7
-10 15 -15 18 -12 3 2 8 -7 10 -21 3 -14 2 -25 -1 -25 -4 0 -4 -27 -1 -60 3
-33 3 -60 -1 -60 -4 0 -4 -13 1 -30 5 -19 5 -30 -1 -30 -6 0 -5 -8 1 -20 8
-14 8 -20 0 -20 -8 0 -8 -6 0 -20 8 -14 8 -20 0 -20 -8 0 -8 -6 0 -20 8 -14 8
-20 0 -20 -8 0 -8 -6 0 -20 8 -15 8 -20 -1 -20 -7 0 -9 -3 -6 -7 9 -9 -13 -34
-24 -27 -5 3 -9 2 -9 -3 0 -11 -79 -8 -90 3 -9 10 -18 114 -10 114 3 0 3 27 0
60 -3 33 -3 60 1 60 3 0 3 18 -1 40 -4 22 -4 40 1 40 4 0 4 14 -1 30 -6 21 -5
30 3 30 7 0 6 4 -3 10 -12 8 -12 10 -1 10 8 0 11 3 8 7 -9 9 13 34 24 27 5 -3
9 -1 9 5 0 6 11 6 30 1 21 -6 30 -5 30 3z m342 -4 c2 4 28 -6 58 -21 30 -15
51 -28 48 -28 -3 0 7 -14 23 -31 16 -17 29 -37 29 -45 0 -8 5 -14 12 -14 6 0
8 -3 5 -7 -4 -3 -2 -12 4 -20 6 -7 7 -13 2 -13 -5 0 -7 -15 -5 -34 3 -29 0
-36 -27 -49 -17 -9 -29 -11 -26 -6 4 5 -4 5 -19 -1 -19 -7 -26 -6 -26 3 0 8
-4 7 -10 -3 -7 -11 -10 -11 -10 -2 0 9 -5 10 -17 3 -11 -6 -24 -6 -36 1 -14 7
-17 7 -13 -1 10 -15 -7 -14 -22 1 -7 7 -12 8 -12 2 0 -5 -9 -10 -20 -10 -11 0
-20 4 -20 9 0 5 -6 4 -13 -2 -8 -6 -18 -7 -22 -3 -5 4 0 -5 11 -20 10 -15 27
-28 36 -28 9 0 19 -4 23 -9 6 -11 45 -10 45 1 0 4 9 8 19 8 11 0 26 6 33 13 7
6 19 13 25 14 14 3 64 -43 56 -51 -3 -3 0 -14 8 -23 7 -10 10 -15 5 -11 -5 4
-17 -4 -28 -17 -11 -14 -24 -23 -29 -20 -5 4 -9 1 -9 -4 0 -6 -18 -14 -40 -17
-22 -4 -40 -9 -40 -13 0 -3 -11 -6 -24 -6 -13 0 -22 3 -20 6 2 4 -3 9 -11 13
-8 3 -15 0 -15 -7 0 -8 -3 -8 -9 2 -5 7 -13 11 -19 7 -6 -3 -15 2 -21 11 -6
10 -11 15 -11 11 0 -19 -90 70 -90 89 0 8 -5 11 -12 7 -7 -5 -9 -2 -6 7 3 8 1
25 -5 39 -15 37 -16 50 -5 50 6 0 5 6 -2 15 -7 8 -8 15 -3 15 5 0 10 7 11 15
1 8 3 22 4 30 1 8 5 15 10 15 5 0 6 5 3 10 -3 6 -1 10 5 10 6 0 8 5 5 10 -3 6
1 13 9 16 9 3 16 13 16 22 0 8 3 13 6 9 6 -5 15 0 49 31 8 7 28 14 45 15 16 1
30 5 30 9 0 4 13 3 29 -2 17 -4 31 -5 33 -1z"/>
<path d="M2632 2641 c-7 -4 -12 -12 -11 -17 1 -5 0 -11 -1 -14 -8 -18 -5 -60
4 -60 6 0 4 -5 -4 -10 -8 -5 -10 -10 -3 -10 12 0 12 -24 0 -36 -3 -4 -2 -15 3
-25 7 -11 7 -20 0 -24 -6 -4 -5 -15 2 -30 11 -23 28 -34 28 -17 0 4 16 7 35 8
24 0 44 9 64 28 26 25 48 76 32 76 -4 0 -7 9 -7 20 0 11 5 20 10 20 5 0 2 8
-7 18 -10 10 -14 23 -10 28 5 5 4 6 -1 2 -5 -4 -17 4 -28 17 -11 14 -25 22
-33 18 -8 -3 -15 0 -15 6 0 8 -5 9 -19 1 -12 -6 -21 -6 -23 0 -2 5 -9 6 -16 1z"/>
<path d="M2980 1953 c0 -7 -7 -10 -17 -6 -11 4 -14 3 -9 -5 4 -7 3 -12 -3 -12
-6 0 -6 -11 -1 -30 5 -17 5 -30 0 -30 -5 0 -5 -13 0 -30 5 -17 5 -30 0 -30 -5
0 -5 -13 0 -30 6 -21 5 -30 -3 -30 -7 0 -6 -4 3 -10 11 -7 11 -10 2 -10 -10 0
-10 -5 -2 -21 9 -16 14 -18 26 -8 9 7 14 8 14 1 0 -7 10 -6 27 3 15 8 30 12
35 9 4 -3 8 0 8 6 0 6 5 8 10 5 6 -3 10 -1 10 5 0 6 4 9 8 6 9 -5 32 52 37 90
1 14 -2 27 -6 30 -5 3 -9 14 -9 24 0 19 -38 53 -51 45 -4 -3 -10 2 -13 11 -4
9 -9 14 -13 11 -3 -4 -12 -2 -20 4 -10 9 -13 8 -13 -2 0 -11 -2 -11 -10 1 -6
9 -10 11 -10 3z"/>
<path d="M3502 1964 c-10 -11 -10 -14 0 -14 9 0 9 -3 -2 -10 -11 -7 -11 -10
-2 -10 7 0 10 -5 7 -10 -3 -6 -3 -20 0 -31 6 -17 9 -19 16 -8 5 8 9 9 9 3 0
-6 7 -11 15 -11 8 0 15 5 15 10 0 6 3 7 6 4 11 -11 46 14 40 29 -3 8 0 14 6
14 6 0 3 8 -6 19 -19 21 -76 34 -76 17 0 -7 -3 -7 -8 0 -5 9 -11 8 -20 -2z"/>
<path d="M3513 1779 c-13 -5 -23 -11 -23 -14 0 -4 5 -3 12 1 8 5 9 2 4 -12
-16 -40 -13 -62 9 -72 16 -7 26 -7 34 1 8 8 11 8 11 -2 0 -11 3 -11 15 -1 8 7
15 9 15 6 0 -4 8 -3 17 3 10 5 17 21 18 38 0 29 -15 54 -27 46 -5 -2 -8 1 -8
8 0 10 -3 10 -12 1 -6 -6 -17 -8 -27 -3 -9 5 -26 5 -38 0z"/>
<path d="M1450 1891 c0 -4 -10 -7 -22 -6 -29 3 -44 -9 -63 -49 -16 -33 -17
-86 -2 -86 4 0 5 -4 2 -10 -3 -5 -1 -10 5 -10 6 0 9 -4 6 -9 -3 -5 4 -12 17
-16 52 -18 73 -20 85 -8 8 7 18 10 24 7 6 -4 8 -2 5 3 -4 6 0 14 9 17 12 5 15
16 12 46 -2 22 1 40 5 40 5 0 4 7 -3 15 -7 8 -9 15 -6 15 12 0 -25 33 -51 47
-12 6 -23 8 -23 4z"/>
<path d="M2512 1894 c-12 -8 -22 -12 -22 -7 0 11 -20 -20 -20 -31 0 -5 3 -6 7
-3 3 4 12 2 20 -4 9 -8 13 -8 13 -1 0 7 10 8 30 2 19 -5 30 -5 30 1 0 6 7 6
19 -1 15 -7 19 -7 17 4 -3 21 -27 47 -38 40 -5 -3 -15 -1 -22 5 -9 7 -19 6
-34 -5z"/>
</g>
</svg>
